<?xml version="1.0" standalone="no"?><!DOCTYPE svg PUBLIC "-//W3C//DTD SVG 1.1//EN" "http://www.w3.org/Graphics/SVG/1.1/DTD/svg11.dtd"><svg t="1664030662957" class="icon" viewBox="0 0 1024 1024" version="1.1" xmlns="http://www.w3.org/2000/svg" p-id="14763" xmlns:xlink="http://www.w3.org/1999/xlink" width="200" height="200"><path d="M353.864 482.235c-14.235 22.792-8.134 52.287 13.627 65.877 21.761 13.59 50.941 6.131 65.175-16.662l75.942-121.597c14.235-22.792 8.134-52.287-13.627-65.877-21.761-13.59-50.941-6.131-65.175 16.662l-75.942 121.597z" fill="#2766D8" p-id="14764"></path><path d="M391.265 569.898h-0.004c-11.255-0.001-22.222-3.135-31.716-9.064-14.034-8.765-23.643-22.676-27.055-39.172-3.359-16.238-0.286-33.062 8.651-47.373l75.942-121.597c11.75-18.814 32.491-30.503 54.127-30.503 11.254 0 22.222 3.135 31.717 9.064 28.741 17.95 36.997 56.774 18.404 86.545l-75.942 121.598c-11.751 18.814-32.492 30.502-54.124 30.502z m79.945-217.709c-11.376 0-22.366 6.282-28.682 16.395l-75.942 121.597c-4.832 7.736-6.507 16.758-4.719 25.405 1.736 8.39 6.554 15.422 13.568 19.803 4.723 2.95 10.196 4.51 15.826 4.51h0.002c11.374 0 22.363-6.281 28.679-16.395l75.942-121.597c9.831-15.741 5.86-36.021-8.85-45.208-4.722-2.95-10.194-4.51-15.824-4.51z" fill="#2B2B2B" p-id="14765"></path><path d="M587.551 232.684m-105.88 0a105.88 105.88 0 1 0 211.76 0 105.88 105.88 0 1 0-211.76 0Z" fill="#F2D8AA" p-id="14766"></path><path d="M521.781 332.614c-55.101-36.265-70.427-110.598-34.162-165.698 22.203-33.735 59.598-53.875 100.029-53.875 23.368 0 46.076 6.817 65.672 19.713 26.692 17.568 44.945 44.478 51.397 75.774s0.33 63.232-17.237 89.924c-22.203 33.734-59.597 53.875-100.028 53.875-23.367 0-46.075-6.817-65.671-19.713z m-11.188-150.579c-27.928 42.434-16.126 99.678 26.308 127.607 15.094 9.934 32.575 15.184 50.553 15.184 31.15 0 59.956-15.511 77.055-41.492 13.53-20.556 18.244-45.15 13.275-69.252-4.969-24.101-19.027-44.826-39.582-58.354-15.094-9.934-32.575-15.184-50.553-15.184-31.15-0.002-59.957 15.509-77.056 41.491z" fill="#2B2B2B" p-id="14767"></path><path d="M633.76 133.768c-18.714-9.652-39.618-13.582-60.451-11.367-36.097 3.838-67.567 25.361-84.181 57.575-27.135 52.614-6.406 117.495 46.207 144.63 18.715 9.651 39.618 13.582 60.451 11.367l0.049-0.006-11.436-107.561 106.85-11.36a108.414 108.414 0 0 0-4.432-20.533c-8.727-27.317-27.572-49.601-53.057-62.745z" fill="#442D2D" p-id="14768"></path><path d="M584.462 351.574h-0.003c-19.338 0-38.702-4.716-56-13.637-59.965-30.927-83.589-104.872-52.664-164.837 18.935-36.713 54.795-61.243 95.927-65.616 23.554-2.503 47.777 2.051 68.913 12.952 29.049 14.982 50.523 40.378 60.47 71.512a123.786 123.786 0 0 1 5.043 23.372l1.741 15.041L600.9 241.736l11.455 107.744-14.983 1.409c-4.277 0.455-8.621 0.685-12.91 0.685z m0.174-214.774c-3.236 0-6.514 0.174-9.741 0.517-31.063 3.303-58.143 21.82-72.436 49.535-23.344 45.263-5.511 101.079 39.751 124.423 11.493 5.928 24.183 9.397 36.993 10.146l-11.307-106.344 105.474-11.214a96.044 96.044 0 0 0-0.843-2.786c-7.507-23.499-23.717-42.668-45.644-53.977-13.064-6.739-27.672-10.3-42.247-10.3zM482.798 923.172c-1.338 0-2.698-0.181-4.05-0.56-7.977-2.231-12.635-10.509-10.403-18.486 0.406-1.452 40.526-145.881 32.091-203.521-1.787-12.209-13.73-40.137-73.649-90.013-35.629-29.658-70.757-52.307-71.108-52.531-6.969-4.478-8.99-13.758-4.514-20.727 4.476-6.97 13.752-8.992 20.725-4.517 1.486 0.954 36.826 23.727 73.858 54.524 51.701 42.996 80.087 79.642 84.372 108.919 9.353 63.91-31.156 209.771-32.885 215.949-1.855 6.627-7.879 10.963-14.437 10.963z" fill="#2B2B2B" p-id="14769"></path><path d="M430.098 686.626c-3.796 0-7.584-0.11-11.375-0.331-69.99-4.068-137.894-46.279-207.591-129.045-7.885-9.363-16.265-13.708-25.63-13.335-25.33 1.058-54.167 34.162-63.141 46.828-4.786 6.753-14.142 8.362-20.902 3.585-6.759-4.777-8.377-14.119-3.608-20.885 0.406-0.576 10.118-14.272 24.925-28.231 21.114-19.904 41.773-30.424 61.404-31.268 13.077-0.563 32.352 3.143 49.9 23.981 64.102 76.12 125.068 114.855 186.384 118.42 49.807 2.888 100.395-16.252 164.046-62.081 51.347-36.97 90.128-107.012 121.289-163.292 30.296-54.716 54.225-97.934 84.353-105.446 10.777-2.686 21.767-0.664 31.786 5.848 56.625 36.806 88.202 45.647 88.515 45.732 8.011 2.111 12.765 10.309 10.653 18.319-2.111 8.01-10.346 12.784-18.356 10.675-1.436-0.378-35.848-9.72-97.161-49.573-3.852-2.505-6.295-2.359-8.178-1.893-4.813 1.2-13.443 6.763-27.228 26.449-11.799 16.849-24.593 39.957-38.138 64.421-32.613 58.901-73.201 132.207-130.006 173.106-32.057 23.081-60.955 39.662-88.348 50.691-28.86 11.621-56.326 17.324-83.593 17.325z" fill="#2B2B2B" p-id="14770"></path><path d="M725.63 412.084c-19.169 0-49.021-1.979-71.31-12.593-7.479-3.562-10.655-12.512-7.094-19.992 3.561-7.479 12.51-10.656 19.992-7.094 27.362 13.03 74.269 9.14 74.739 9.1 8.243-0.713 15.523 5.387 16.245 13.636 0.722 8.249-5.371 15.521-13.619 16.249-0.808 0.071-8.199 0.694-18.953 0.694zM694.63 459.084c-19.169 0-49.021-1.979-71.31-12.593-7.479-3.562-10.655-12.512-7.094-19.992 3.561-7.479 12.508-10.657 19.992-7.094 27.362 13.031 74.27 9.14 74.739 9.1 8.243-0.711 15.523 5.387 16.245 13.636 0.722 8.249-5.371 15.521-13.619 16.249-0.808 0.071-8.199 0.694-18.953 0.694zM669.13 506.084c-19.169 0-49.021-1.979-71.31-12.593-7.479-3.562-10.655-12.512-7.094-19.992 3.561-7.479 12.51-10.657 19.992-7.094 27.362 13.03 74.269 9.14 74.739 9.1 8.242-0.71 15.523 5.387 16.245 13.636 0.722 8.249-5.371 15.521-13.619 16.249-0.808 0.071-8.199 0.694-18.953 0.694z" fill="#2B2B2B" p-id="14771"></path><path d="M699.003 598.008c-1.351 0-2.724-0.184-4.087-0.569-0.348-0.098-35.157-9.95-71.961-21.638-76.655-24.344-87.316-32.873-91.33-36.084-7.895-6.315-18.164-20.645-27.583-75.857-4.879-28.601-7.225-54.765-7.322-55.865-0.731-8.251 5.365-15.532 13.616-16.264 8.253-0.732 15.534 5.364 16.266 13.615 0.022 0.253 2.301 25.621 6.88 52.691 8.474 50.089 16.597 57.988 16.938 58.3 10.98 8.782 86.255 33.468 152.653 52.232 7.973 2.253 12.608 10.542 10.355 18.514-1.865 6.608-7.881 10.925-14.425 10.925z" fill="#2B2B2B" p-id="14772"></path></svg>